<svg width="32" height="32" viewBox="0 0 32 32" fill="none" xmlns="http://www.w3.org/2000/svg">
<path d="M16.0003 27.3334C22.2596 27.3334 27.3337 22.2592 27.3337 16C27.3337 9.74079 22.2596 4.66669 16.0003 4.66669C9.7411 4.66669 4.66699 9.74079 4.66699 16C4.66699 22.2592 9.7411 27.3334 16.0003 27.3334Z" stroke="black"/>
<path d="M16 20C18.2091 20 20 18.2091 20 16C20 13.7909 18.2091 12 16 12C13.7909 12 12 13.7909 12 16C12 18.2091 13.7909 20 16 20Z" stroke="black"/>
<path d="M20.0003 16L20.835 15.0173C21.967 13.6867 24.139 14.6107 23.9657 16.3493C23.7777 18.2267 26.2577 19.0693 27.2523 17.464L27.3337 17.3333M12.0003 16L11.7643 17.3413C11.391 19.4573 8.36966 19.504 7.93099 17.4L7.70299 16.304C7.38299 14.772 5.28299 14.5627 4.66699 16" stroke="black"/>
<path d="M12.6667 9.33333C13.0349 9.33333 13.3333 9.03486 13.3333 8.66667C13.3333 8.29848 13.0349 8 12.6667 8C12.2985 8 12 8.29848 12 8.66667C12 9.03486 12.2985 9.33333 12.6667 9.33333Z" stroke="black"/>
<path d="M22.0007 12C22.3688 12 22.6673 11.7015 22.6673 11.3334C22.6673 10.9652 22.3688 10.6667 22.0007 10.6667C21.6325 10.6667 21.334 10.9652 21.334 11.3334C21.334 11.7015 21.6325 12 22.0007 12Z" stroke="black"/>
<path d="M18.0007 8.00002C18.3688 8.00002 18.6673 7.70154 18.6673 7.33335C18.6673 6.96516 18.3688 6.66669 18.0007 6.66669C17.6325 6.66669 17.334 6.96516 17.334 7.33335C17.334 7.70154 17.6325 8.00002 18.0007 8.00002Z" stroke="black"/>
</svg>
