<svg width="17" height="22" viewBox="0 0 17 22" fill="none" xmlns="http://www.w3.org/2000/svg">
<path d="M16.278 9.95617C15.8092 8.88176 15.1277 7.91742 14.2761 7.12349L13.5734 6.46695C13.5496 6.44527 13.5208 6.42989 13.4898 6.42214C13.4587 6.4144 13.4263 6.41455 13.3953 6.42256C13.3643 6.43057 13.3357 6.44621 13.312 6.46809C13.2884 6.48998 13.2703 6.51745 13.2595 6.5481L12.9456 7.46528C12.75 8.04067 12.3902 8.62835 11.8807 9.2062C11.8469 9.24308 11.8082 9.25292 11.7817 9.25538C11.7551 9.25784 11.7141 9.25292 11.6778 9.21849C11.644 9.18899 11.6271 9.14472 11.6295 9.10046C11.7189 7.62019 11.2842 5.95058 10.3328 4.13343C9.54559 2.62365 8.4517 1.44582 7.08494 0.624538L6.08764 0.0270191C5.95724 -0.0516666 5.79062 0.0516082 5.79786 0.206521L5.85099 1.38681C5.88721 2.19333 5.79545 2.90642 5.57812 3.49903C5.31249 4.22441 4.93096 4.89816 4.44318 5.50305C4.10372 5.92344 3.71897 6.30368 3.29616 6.63662C2.27787 7.43372 1.44986 8.45508 0.874147 9.62422C0.299851 10.8035 0.000700672 12.102 0 13.4183C0 14.579 0.224574 15.7027 0.668891 16.7625C1.09791 17.7829 1.71704 18.7089 2.49204 19.4894C3.27443 20.2763 4.18238 20.8959 5.19417 21.3263C6.24218 21.7738 7.35298 22 8.49999 22C9.64701 22 10.7578 21.7738 11.8058 21.3287C12.8151 20.9009 13.7329 20.277 14.5079 19.4919C15.2903 18.705 15.9037 17.7854 16.3311 16.7649C16.7747 15.708 17.0023 14.5702 17 13.4208C17 12.2208 16.7585 11.0553 16.278 9.95617ZM13.3537 18.2993C12.0569 19.6075 10.3352 20.3255 8.49999 20.3255C6.66477 20.3255 4.94303 19.6075 3.6463 18.2993C2.3544 16.9936 1.64204 15.2625 1.64204 13.4208C1.64204 12.3512 1.87869 11.3258 2.34474 10.3717C2.79872 9.4398 3.47485 8.60622 4.29588 7.96444C4.81949 7.55673 5.29441 7.08798 5.71093 6.56777C6.31462 5.81779 6.78792 4.98176 7.11633 4.08425C7.25104 3.71403 7.34893 3.33098 7.40851 2.94085C7.99047 3.48673 8.47826 4.14572 8.88635 4.91783C9.69289 6.45712 10.0648 7.82674 9.99232 8.99227C9.97501 9.26678 10.019 9.54171 10.1211 9.79639C10.2231 10.0511 10.3806 10.2789 10.5815 10.4627C10.7557 10.6229 10.9593 10.7463 11.1807 10.8256C11.4021 10.905 11.6367 10.9388 11.871 10.925C12.3467 10.9004 12.7838 10.6865 13.1025 10.325C13.4237 9.95863 13.7014 9.58487 13.9332 9.20374C14.2713 9.64389 14.5538 10.1234 14.7784 10.6398C15.1623 11.52 15.3579 12.4569 15.3579 13.4208C15.3579 15.2625 14.6456 16.9961 13.3537 18.2993Z" fill="white"/>
</svg>
