<svg width="15" height="15" viewBox="0 0 15 15" fill="none" xmlns="http://www.w3.org/2000/svg">
<g clip-path="url(#clip0_842_119)">
<path d="M15 7.5C15 3.35789 11.6421 0 7.5 0C3.35789 0 0 3.35789 0 7.5C0 11.2434 2.74266 14.3463 6.32812 14.9089V9.66797H4.42383V7.5H6.32812V5.84766C6.32812 3.96797 7.44785 2.92969 9.16102 2.92969C9.98156 2.92969 10.8398 3.07617 10.8398 3.07617V4.92188H9.89414C8.96244 4.92188 8.67188 5.50002 8.67188 6.09316V7.5H10.752L10.4194 9.66797H8.67188V14.9089C12.2573 14.3463 15 11.2435 15 7.5Z" fill="#1877F2"/>
<path d="M10.4194 9.66797L10.752 7.5H8.67188V6.09316C8.67188 5.49996 8.96244 4.92188 9.89414 4.92188H10.8398V3.07617C10.8398 3.07617 9.98156 2.92969 9.16096 2.92969C7.44785 2.92969 6.32812 3.96797 6.32812 5.84766V7.5H4.42383V9.66797H6.32812V14.9089C6.71579 14.9696 7.1076 15.0001 7.5 15C7.8924 15.0001 8.28421 14.9696 8.67188 14.9089V9.66797H10.4194Z" fill="white"/>
</g>
<defs>
<clipPath id="clip0_842_119">
<rect width="15" height="15" fill="white"/>
</clipPath>
</defs>
</svg>
