<svg width="22" height="15" viewBox="0 0 22 15" fill="none" xmlns="http://www.w3.org/2000/svg">
<g clip-path="url(#clip0_842_129)">
<path d="M20.8644 2.33958C20.7421 1.88738 20.5034 1.47512 20.1721 1.14386C19.8409 0.812593 19.4286 0.573884 18.9764 0.4515C17.3209 0 10.6581 0 10.6581 0C10.6581 0 3.99494 0.0136666 2.33944 0.465167C1.88723 0.587558 1.47498 0.82628 1.14373 1.15756C0.812478 1.48884 0.573793 1.90111 0.451441 2.35333C-0.049309 5.29483 -0.243559 9.777 0.465191 12.6008C0.587555 13.053 0.826246 13.4653 1.1575 13.7966C1.48874 14.1278 1.90099 14.3665 2.35319 14.4889C4.00869 14.9404 10.6717 14.9404 10.6717 14.9404C10.6717 14.9404 17.3346 14.9404 18.99 14.4889C19.4422 14.3665 19.8545 14.1278 20.1858 13.7966C20.517 13.4653 20.7557 13.053 20.8781 12.6008C21.4063 9.65517 21.569 5.17575 20.8644 2.33958Z" fill="#FF0000"/>
<path d="M8.53717 10.6716L14.0645 7.47005L8.53717 4.26855V10.6716Z" fill="white"/>
</g>
<defs>
<clipPath id="clip0_842_129">
<rect width="21.3375" height="15" fill="white"/>
</clipPath>
</defs>
</svg>
