<svg width="16" height="20" viewBox="0 0 16 20" fill="none" xmlns="http://www.w3.org/2000/svg">
<path fill-rule="evenodd" clip-rule="evenodd" d="M6.87068 4.0125C7.47768 3.94 8.21718 3.945 8.93168 4.286C9.68468 4.645 10.1937 5.271 10.5217 6.024C10.8607 6.8005 11.1912 7.183 11.4237 7.369C11.6377 7.5415 11.8197 7.589 11.9837 7.598C12.3737 7.619 12.7502 7.4485 13.2132 7.225L13.3837 7.1435C13.5622 7.05673 13.7561 7.00623 13.9542 6.99494C14.1524 6.98365 14.3508 7.0118 14.538 7.07774C14.7251 7.14368 14.8974 7.24612 15.0447 7.3791C15.192 7.51209 15.3115 7.67299 15.3961 7.85247C15.4808 8.03196 15.529 8.22646 15.538 8.42472C15.547 8.62297 15.5165 8.82104 15.4484 9.00744C15.3803 9.19384 15.2758 9.36486 15.1411 9.51061C15.0064 9.65636 14.8441 9.77392 14.6637 9.8565L14.5622 9.9065L14.5492 9.9135C14.1422 10.1175 13.0612 10.66 11.8232 10.5935C11.0923 10.5548 10.3871 10.3111 9.78818 9.8905L10.0632 9.324L9.61318 9.106L9.27118 9.47C9.43305 9.62277 9.60552 9.76332 9.78818 9.8905L8.79218 11.943L8.60468 11.6985L8.20768 12.0025L8.65768 12.221L8.79218 11.943C9.11818 12.366 9.44768 12.7835 9.72868 13.1405L9.33668 13.4505L9.72968 13.1415L9.85168 13.2965C10.0117 13.5005 10.1557 13.683 10.2647 13.825L10.2692 13.8305L10.2792 13.843C10.3542 13.9405 10.4907 14.118 10.5702 14.257C10.6882 14.4635 10.7537 14.688 10.7787 14.774L10.7797 14.7775C10.8172 14.9065 10.8532 15.0525 10.8872 15.1985C10.9557 15.493 11.0297 15.854 11.1017 16.2185C11.1532 16.4785 11.2037 16.7425 11.2522 16.9935C11.3437 17.4675 11.4252 17.8895 11.4882 18.176C11.5693 18.5626 11.4947 18.9656 11.2805 19.2975C11.0663 19.6294 10.7299 19.8634 10.3442 19.9487C9.95851 20.0341 9.55473 19.9638 9.22053 19.7532C8.88633 19.5426 8.64868 19.2087 8.55918 18.824C8.48668 18.4965 8.39318 18.011 8.29918 17.5255L8.29818 17.518C8.25118 17.2745 8.20368 17.029 8.15818 16.7995C8.0986 16.4912 8.03426 16.1838 7.96518 15.8775C7.95141 15.818 7.93691 15.7587 7.92168 15.6995L7.97818 15.7745L8.37868 15.475L7.96468 15.5955L7.89868 15.615L7.90618 15.6405L7.88768 15.655C7.78968 15.528 7.65618 15.3575 7.49418 15.1515L7.37318 14.9985V14.9975C7.07168 14.615 6.70318 14.1475 6.34168 13.6775C5.93318 13.147 5.51568 12.59 5.20218 12.1325C5.04868 11.9085 4.89718 11.6755 4.78318 11.4655C4.7134 11.3385 4.65291 11.2067 4.60218 11.071C4.56266 10.9617 4.53353 10.8488 4.51518 10.734C4.49518 10.609 4.46768 10.3475 4.55668 10.039C4.61468 9.8385 4.89718 9.045 5.19518 8.2185C5.22952 8.1805 5.26502 8.1425 5.30168 8.1045C5.43568 7.9645 5.57318 7.835 5.71418 7.716C5.94357 7.51882 6.1969 7.35133 6.46818 7.2175L6.25168 6.767L5.78168 6.5965L5.25268 8.058L5.19518 8.2185C4.78918 8.662 4.49818 9.098 4.26818 9.4435L4.26568 9.4475C4.19918 9.5475 4.13468 9.645 4.07468 9.7295C3.96219 9.89281 3.81843 10.0322 3.65172 10.1396C3.48502 10.247 3.29867 10.3203 3.10346 10.3552C2.90825 10.3901 2.70806 10.3859 2.51446 10.343C2.32087 10.3 2.13771 10.2191 1.97559 10.1049C1.81346 9.99072 1.67559 9.8455 1.56995 9.67768C1.46431 9.50986 1.39299 9.32275 1.36013 9.12719C1.32726 8.93163 1.3335 8.73149 1.37848 8.53835C1.42346 8.34522 1.50629 8.16292 1.62218 8.002C1.64368 7.972 1.67618 7.9225 1.72568 7.847L1.72918 7.842C1.96568 7.484 2.46418 6.7285 3.13718 6.027C3.95468 5.176 5.20018 4.211 6.87068 4.0125ZM7.90568 15.64L7.92168 15.6995L7.88768 15.654L7.90568 15.64ZM8.50118 5.188C8.02918 4.963 7.50618 4.943 6.98868 5.005C5.64468 5.1645 4.59918 5.9475 3.85868 6.7195C3.25168 7.3515 2.79468 8.0425 2.56068 8.3975L2.55618 8.404C2.51218 8.471 2.47118 8.533 2.43968 8.5775C2.3633 8.68591 2.33311 8.82022 2.35576 8.95088C2.3784 9.08155 2.45203 9.19787 2.56043 9.27425C2.66884 9.35063 2.80315 9.38082 2.93382 9.35818C3.06448 9.33553 3.1808 9.26191 3.25718 9.1535C3.30868 9.0805 3.36618 8.994 3.43568 8.8895L3.43968 8.883C3.68968 8.507 4.05268 7.9615 4.57968 7.4115C4.99818 6.976 5.48318 6.581 6.03518 6.316C6.1247 6.27303 6.22499 6.25769 6.32326 6.27192C6.42153 6.28616 6.51334 6.32934 6.58698 6.39596C6.66062 6.46257 6.71276 6.5496 6.73675 6.64596C6.76074 6.74232 6.75549 6.84364 6.72168 6.937L6.35568 7.947C5.98068 8.9845 5.57818 10.107 5.51718 10.3165C5.49325 10.4017 5.48846 10.4912 5.50318 10.5785C5.51268 10.6385 5.52868 10.692 5.54368 10.7335C5.57368 10.8185 5.61718 10.9055 5.66118 10.9865C5.75118 11.1515 5.87968 11.3515 6.02718 11.567C6.32418 12.0005 6.72818 12.539 7.13468 13.067C7.49218 13.5325 7.85718 13.996 8.15918 14.379L8.27968 14.5325C8.44781 14.7457 8.61449 14.96 8.77968 15.1755C8.81535 15.2238 8.84185 15.2772 8.85918 15.3355C8.88218 15.414 8.90918 15.5205 8.93918 15.6505C8.99968 15.9105 9.06818 16.245 9.13918 16.6055C9.18518 16.8375 9.23318 17.0845 9.27968 17.3275V17.3285C9.37518 17.8225 9.46618 18.295 9.53568 18.6075C9.56433 18.737 9.64324 18.8498 9.75506 18.9211C9.86687 18.9924 10.0024 19.0164 10.1319 18.9877C10.2614 18.9591 10.3742 18.8802 10.4455 18.7684C10.5169 18.6566 10.5408 18.521 10.5122 18.3915C10.4271 17.9918 10.3469 17.5911 10.2717 17.1895L10.2702 17.182C10.2212 16.925 10.1712 16.6681 10.1202 16.4115C10.0563 16.0814 9.98728 15.7524 9.91318 15.4245C9.88519 15.3008 9.85385 15.178 9.81918 15.056C9.79126 14.9511 9.75204 14.8495 9.70218 14.753C9.63297 14.6448 9.55786 14.5405 9.47718 14.4405L9.47218 14.4345C9.36718 14.2975 9.22718 14.1195 9.06568 13.9145M9.06568 13.9145L8.94568 13.761H8.94468L8.94418 13.76L8.94318 13.7585C8.64168 13.3755 8.28118 12.918 7.92718 12.4575L7.81068 12.306C7.75426 12.2324 7.71942 12.1445 7.71006 12.0523C7.7007 11.96 7.71719 11.8669 7.75768 11.7835L9.16368 8.887C9.19791 8.81641 9.24827 8.75487 9.31069 8.70735C9.37311 8.65983 9.44583 8.62766 9.52299 8.61344C9.60014 8.59923 9.67955 8.60337 9.7548 8.62553C9.83006 8.64769 9.89904 8.68725 9.95618 8.741C10.0272 8.808 10.0992 8.87067 10.1722 8.929C10.7312 9.3775 11.3187 9.5645 11.8772 9.5945C12.8357 9.646 13.7117 9.2145 14.1137 9.0125L14.1177 9.0105L14.2372 8.9515C14.298 8.92436 14.3527 8.88537 14.3982 8.83679C14.4437 8.78822 14.4791 8.73105 14.5022 8.66864C14.5253 8.60623 14.5357 8.53982 14.5329 8.47333C14.53 8.40683 14.5139 8.34158 14.4854 8.2814C14.457 8.22121 14.4168 8.16731 14.3673 8.12285C14.3178 8.07839 14.2599 8.04427 14.197 8.02249C14.1341 8.0007 14.0675 7.99169 14.0011 7.99599C13.9346 8.00028 13.8697 8.0178 13.8102 8.0475L13.6477 8.1255L13.6117 8.143C13.1917 8.3455 12.5997 8.632 11.9302 8.596C11.5687 8.5765 11.1842 8.459 10.7977 8.149C10.4052 7.834 9.98918 7.303 9.60518 6.423C9.34818 5.833 8.98618 5.419 8.50118 5.188M4.57718 12.686C4.66781 12.6728 4.76031 12.6848 4.8446 12.7206C4.9289 12.7564 5.00174 12.8146 5.05518 12.889L6.48268 14.873C6.52953 14.9381 6.56002 15.0135 6.5716 15.0929C6.58317 15.1722 6.57548 15.2532 6.54918 15.329L6.30418 16.033C6.18235 16.3833 5.93504 16.6761 5.61 16.8548C5.28497 17.0335 4.90525 17.0854 4.54418 17.0005L1.18018 16.2095C0.98575 16.1671 0.801705 16.0864 0.638767 15.9721C0.47583 15.8578 0.337258 15.7123 0.231124 15.544C0.12499 15.3756 0.0534156 15.1878 0.0205706 14.9916C-0.0122744 14.7953 -0.00573374 14.5944 0.0398119 14.4007C0.0853575 14.207 0.168998 14.0242 0.285859 13.8632C0.402721 13.7021 0.550469 13.5659 0.720495 13.4624C0.890521 13.359 1.07943 13.2905 1.27621 13.2608C1.47299 13.2311 1.67371 13.2409 1.86668 13.2895L3.91468 13.7705L4.17718 13.0165C4.20731 12.9302 4.26054 12.8538 4.33106 12.7956C4.40158 12.7374 4.48671 12.6992 4.57718 12.686ZM4.80518 14.2545L4.71118 14.525C4.67057 14.6417 4.58816 14.7393 4.47985 14.7989C4.37155 14.8584 4.24502 14.8757 4.12468 14.8475L1.63818 14.263C1.50909 14.2326 1.37322 14.2548 1.26046 14.3246C1.14771 14.3944 1.0673 14.5062 1.03693 14.6353C1.00657 14.7643 1.02872 14.9002 1.09853 15.013C1.16835 15.1257 1.28009 15.2061 1.40918 15.2365L4.77318 16.028C4.89352 16.0562 5.02005 16.0389 5.12835 15.9794C5.23666 15.9198 5.31907 15.8222 5.35968 15.7055L5.51918 15.247L4.80518 14.2545ZM11.7737 4C12.1715 4 12.553 3.84196 12.8343 3.56066C13.1156 3.27936 13.2737 2.89782 13.2737 2.5C13.2737 2.10218 13.1156 1.72064 12.8343 1.43934C12.553 1.15804 12.1715 1 11.7737 1C11.3759 1 10.9943 1.15804 10.713 1.43934C10.4317 1.72064 10.2737 2.10218 10.2737 2.5C10.2737 2.89782 10.4317 3.27936 10.713 3.56066C10.9943 3.84196 11.3759 4 11.7737 4ZM11.7737 5C12.4367 5 13.0726 4.73661 13.5414 4.26777C14.0103 3.79893 14.2737 3.16304 14.2737 2.5C14.2737 1.83696 14.0103 1.20107 13.5414 0.732233C13.0726 0.263392 12.4367 0 11.7737 0C11.1106 0 10.4748 0.263392 10.0059 0.732233C9.53708 1.20107 9.27368 1.83696 9.27368 2.5C9.27368 3.16304 9.53708 3.79893 10.0059 4.26777C10.4748 4.73661 11.1106 5 11.7737 5Z" fill="white" fill-opacity="0.67"/>
</svg>
