<svg width="31" height="39" viewBox="0 0 31 39" fill="none" xmlns="http://www.w3.org/2000/svg">
<path d="M26.2651 0.786205C24.65 1.85903 24.9451 4.06875 24.9451 4.06875L25.0039 4.0949C23.5134 4.85392 22.1462 5.83718 20.9141 6.95381C20.6667 7.17936 20.4304 7.41537 20.194 7.65138C20.4795 7.24408 20.7003 6.72565 20.6416 6.12092C20.4943 4.60745 18.6409 2.9482 18.6409 2.9482C18.6409 2.9482 17.1356 4.90034 17.2822 6.41315C17.4281 7.92661 19.1892 8.61895 19.1892 8.61895C19.1892 8.61895 19.3003 8.5503 19.4598 8.42216C18.9094 9.02804 18.3891 9.66123 17.9008 10.3194C17.9557 10.0494 17.9674 9.75911 17.9047 9.45315C17.5857 7.89196 15.472 6.35039 15.472 6.35039C15.472 6.35039 14.1223 8.53134 14.4413 10.0906C14.7345 11.521 16.3561 12.0963 16.626 12.1833C16.1412 12.9641 15.6885 13.765 15.2692 14.5839C15.2947 14.2307 15.241 13.8763 15.1123 13.547C14.626 12.3186 13.0426 11.2791 12.2909 10.8411C13.1472 10.3037 13.8214 9.41 13.8214 9.41C13.8214 9.41 12.09 8.52742 10.8882 8.79481C9.68641 9.0622 9.31766 10.4129 9.31766 10.4129C9.31766 10.4129 10.2799 11.4654 11.4817 11.198C11.5605 11.181 11.6367 11.1457 11.7129 11.1189C11.6657 11.2673 11.6147 11.4426 11.5631 11.6387C10.9528 11.4674 9.80911 11.2235 8.99671 11.5112C8.45941 11.7021 8.13716 12.1015 7.93955 12.4768C8.59438 11.0869 9.42228 9.76892 10.4581 8.57907C10.7629 8.62875 12.2709 8.81377 13.142 7.82201C14.1165 6.71519 14.0481 4.41852 14.0481 4.41852C14.0481 4.41852 11.6567 4.76697 10.6829 5.87445C9.70901 6.98192 10.3994 8.56992 10.3994 8.56992L10.4491 8.57841C9.50171 9.42831 8.69383 10.4227 8.01382 11.4896C7.87433 11.7113 7.74388 11.9375 7.61666 12.1643C7.74711 11.8028 7.80975 11.3693 7.63345 10.9215C7.20271 9.82384 5.46941 8.94583 5.46941 8.94583C5.46941 8.94583 4.7655 10.6868 5.19753 11.7845C5.62892 12.8821 7.08517 13.0593 7.08517 13.0593C7.08517 13.0593 7.15556 12.9828 7.24856 12.8547C6.96183 13.4213 6.7061 14.0001 6.48136 14.5911C6.47067 14.359 6.41123 14.1319 6.307 13.9249C5.73806 12.8253 3.8388 12.0839 3.8388 12.0839C3.8388 12.0839 3.29762 13.9648 3.86721 15.0651C4.39934 16.0941 5.76324 16.1928 5.93825 16.2006C5.74202 16.8806 5.57461 17.5688 5.43648 18.2633C5.38365 17.9883 5.26921 17.7293 5.10196 17.5062C4.2747 16.4177 2.07838 15.9457 2.07838 15.9457C2.07838 15.9457 1.85881 18.0724 2.68477 19.1609C3.45778 20.1775 4.95924 20.0487 5.1562 20.0271C5.04972 20.821 4.97153 21.6184 4.92178 22.4179C4.91597 22.5363 4.91791 22.6533 4.91274 22.771C4.83962 22.3674 4.64837 21.9955 4.36382 21.7034C3.34606 20.6613 0.974725 20.4364 0.974725 20.4364C0.974725 20.4364 1.03349 22.6978 2.05125 23.7398C3.06902 24.7819 4.7894 24.34 4.7894 24.34C4.7894 24.34 4.83654 24.2092 4.88174 24.002C4.87529 24.7395 4.88368 25.4762 4.91791 26.2111C4.98701 27.4741 5.09421 28.7326 5.27309 29.9839C5.44451 31.2346 5.66772 32.4774 5.94213 33.7091C5.99853 33.9514 6.05622 34.1929 6.1152 34.4335C5.55186 33.7639 5.02062 33.0672 4.52333 32.346C3.43066 30.7371 2.52655 29.0249 1.88851 27.2257C1.24762 25.4307 0.878157 23.548 0.792613 21.6413C0.707369 19.7323 0.912729 17.8076 1.29439 15.8855C0.508533 17.7053 0.072593 19.6601 0.00991735 21.6452C-0.0624109 23.632 0.26242 25.6397 0.93404 27.531C1.60631 29.4243 2.61632 31.1993 3.88077 32.7749C4.51228 33.5667 5.20294 34.3083 5.94665 34.9931C6.07839 35.1108 6.21142 35.2269 6.34575 35.3415C6.52592 36.0208 6.72224 36.6942 6.95279 37.3597C6.83427 36.767 6.72404 36.1727 6.62214 35.5769C7.173 36.0358 7.74646 36.466 8.36771 36.8328C7.94352 36.4371 7.53402 36.0256 7.14006 35.5991C7.33318 34.8275 7.57763 34.0701 7.87174 33.3319C8.15839 32.5976 8.49167 31.8828 8.86949 31.1921C9.4666 30.1093 10.1915 29.1041 11.0284 28.1985C10.9728 28.5404 10.9057 28.8804 10.8585 29.223C10.6637 30.5922 10.5183 31.9682 10.4226 33.3482C10.0752 34.3831 9.7794 35.4376 9.65928 36.5144C9.85431 35.8881 10.0829 35.2762 10.3348 34.674C10.2702 36.1156 10.2405 37.5598 10.3212 39C10.4534 37.3752 10.6318 35.7576 10.8566 34.1471C10.8979 33.8359 10.9496 33.5267 10.9948 33.2162C11.4941 32.1841 12.0468 31.1794 12.6506 30.2062C13.8941 28.2218 15.332 26.3692 16.9425 24.6767C17.0613 24.5518 17.1879 24.4335 17.3067 24.3099C18.3225 23.9798 19.3732 23.7196 20.4504 23.5097C19.6304 23.4745 18.8089 23.5112 17.9951 23.6196C19.337 22.3198 20.7666 21.1162 22.2735 20.0173C24.1973 18.6137 26.2541 17.3663 28.3859 16.2C26.0798 17.0097 23.8746 18.0885 21.815 19.4145C19.7896 20.7045 17.9238 22.2349 16.2573 23.9732C15.9764 24.0484 15.6955 24.1203 15.4191 24.2138C14.3587 24.5721 13.3516 25.0753 12.4258 25.7096C12.5163 25.337 12.5963 24.9624 12.6945 24.5917C12.8869 23.8377 13.0934 23.0872 13.3138 22.3401C13.7265 22.5781 15.3467 23.4104 16.834 22.6709C18.5537 21.8139 19.658 19.0746 19.658 19.0746C19.658 19.0746 16.6558 18.3757 14.9354 19.2302C14.6246 19.3842 14.3457 19.597 14.1139 19.8571C14.4338 18.9256 14.7851 18.0054 15.1672 17.0983C15.319 17.2218 16.8695 18.4332 18.5001 17.8507C20.2173 17.2375 21.5851 14.7885 21.5851 14.7885C21.5851 14.7885 18.8566 13.8033 17.1394 14.4165C16.6902 14.578 16.2919 14.8584 15.9861 15.2285C16.4281 14.2841 16.913 13.3609 17.4391 12.4618C17.392 12.5749 17.3706 12.6435 17.3706 12.6435C17.3706 12.6435 18.6177 14.1191 20.2618 13.8164C21.9047 13.5137 23.5302 11.5079 23.5302 11.5079C23.5302 11.5079 21.2318 10.2266 19.5889 10.5292C18.8876 10.6587 18.3832 11.0621 18.0326 11.4824C18.1023 11.37 18.1688 11.2569 18.2399 11.1457C18.8138 10.261 19.4378 9.41052 20.1088 8.59868C19.9086 8.88568 19.8117 9.10796 19.8117 9.10796C19.8117 9.10796 20.8489 10.6247 22.444 10.4854C24.0378 10.3468 25.7859 8.58626 25.7859 8.58626C25.7859 8.58626 23.7291 7.15713 22.134 7.29704C21.4507 7.35718 20.9276 7.6991 20.5518 8.07044C21.8472 6.57986 23.328 5.22853 25.0142 4.09752C25.3771 4.25704 27.1982 4.97683 28.6467 4.01514C30.2625 2.94493 31 0.0500673 31 0.0500673C31 0.0500673 27.8821 -0.286621 26.2651 0.786205ZM9.06387 20.3671C9.14459 20.5142 9.24017 20.643 9.3422 20.7646C8.65767 20.8169 7.03416 21.0176 6.18172 21.7681C5.96667 21.957 5.81362 22.1721 5.70383 22.3944C5.74129 21.6393 5.81232 20.8875 5.9008 20.1376C5.97313 20.171 7.42227 20.8241 8.54078 20.0579C8.64475 19.9872 8.74162 19.9023 8.83397 19.8127C8.89596 20.0069 8.96894 20.1945 9.06387 20.3671ZM8.67317 17.2029C8.02673 17.2656 7.30539 17.4173 6.7978 17.7644C6.50299 17.9673 6.26853 18.2479 6.11972 18.5758C6.24177 17.8187 6.40774 17.0702 6.5976 16.3281C6.59308 16.3726 6.59179 16.4014 6.59179 16.4014C6.59179 16.4014 7.64959 17.1185 8.72354 16.806C8.70425 16.938 8.68746 17.0703 8.67317 17.2029ZM15.2008 25.152C13.9551 26.6086 12.8566 28.1783 11.9615 29.8473C11.7332 30.2755 11.5185 30.7109 11.3177 31.1529C11.4197 30.5475 11.5224 29.9428 11.636 29.3406C11.7777 28.6224 11.9256 27.9063 12.0797 27.1924C13.026 26.375 14.0756 25.6889 15.2008 25.152ZM11.0284 26.804C9.80232 27.9443 8.82523 29.3314 8.15976 30.8763C7.83224 31.6249 7.57746 32.4039 7.39903 33.2024C7.23241 33.9928 7.11488 34.7963 7.142 35.5978C6.92889 35.369 6.72073 35.1373 6.51753 34.9029C6.45036 34.4845 6.37997 34.0667 6.32056 33.647C6.14054 32.4095 5.99303 31.1673 5.8782 29.9218C5.77229 28.6764 5.68123 27.4317 5.65475 26.1862C5.63808 25.5889 5.63205 24.9912 5.63667 24.3936C5.99314 24.4917 7.37578 24.7989 8.32573 23.9634C9.17624 23.2142 9.50946 21.6981 9.61666 21.0529C10.6738 21.9976 12.2754 22.0035 12.2754 22.0035C12.2754 22.0035 12.3813 21.855 12.5117 21.6112C12.2377 22.5293 11.989 23.4549 11.7658 24.3871C11.6005 25.1128 11.4494 25.8424 11.3073 26.572C11.2163 26.6511 11.1168 26.7217 11.0284 26.804ZM12.9922 20.0775C13.0335 19.5963 12.9683 19.0726 12.688 18.5653C12.0868 17.4774 10.6086 16.6517 9.68641 16.2203C10.4504 15.4815 10.9321 14.3766 10.9321 14.3766C10.9321 14.3766 8.94956 13.8621 7.79296 14.4035C7.29699 14.6342 7.01349 15.0317 6.84236 15.4129C6.87077 15.3161 6.89079 15.2174 6.91985 15.1219C7.15974 14.3535 7.44328 13.5998 7.76906 12.8645C7.68124 13.1182 7.65476 13.3045 7.65476 13.3045C7.65476 13.3045 8.75001 14.2335 9.90533 13.8242C10.4704 13.6248 10.9786 13.1312 11.3519 12.6775C11.2492 13.4019 11.2395 14.1949 11.4953 14.8389C12.092 16.3438 13.979 16.6766 14.2676 16.7191C13.8543 17.6784 13.4745 18.6523 13.1291 19.6388C13.08 19.7826 13.04 19.9317 12.9922 20.0775Z" fill="black"/>
</svg>
