<svg width="15" height="15" viewBox="0 0 15 15" fill="none" xmlns="http://www.w3.org/2000/svg">
<g clip-path="url(#clip0_842_124)">
<path d="M11.4844 0H3.51562C1.574 0 0 1.574 0 3.51562V11.4844C0 13.426 1.574 15 3.51562 15H11.4844C13.426 15 15 13.426 15 11.4844V3.51562C15 1.574 13.426 0 11.4844 0Z" fill="white"/>
<path d="M11.4844 0H3.51562C1.574 0 0 1.574 0 3.51562V11.4844C0 13.426 1.574 15 3.51562 15H11.4844C13.426 15 15 13.426 15 11.4844V3.51562C15 1.574 13.426 0 11.4844 0Z" fill="#1D9BF0"/>
<path d="M11.6937 5.35611C11.7001 5.4491 11.7001 5.54209 11.7001 5.63595C11.7001 8.49515 9.52348 11.7927 5.54338 11.7927V11.7909C4.36759 11.7926 3.21615 11.4559 2.22656 10.8209C2.39762 10.8414 2.5693 10.8518 2.7416 10.8521C3.71613 10.8529 4.66264 10.5261 5.429 9.92408C4.97748 9.91552 4.53991 9.76609 4.17746 9.49668C3.81502 9.22727 3.54581 8.85134 3.40746 8.42144C3.73164 8.48397 4.06586 8.47122 4.38434 8.38418C3.37488 8.18021 2.64861 7.29328 2.64861 6.2632V6.23578C2.94954 6.4034 3.28633 6.49628 3.63064 6.5066C2.6799 5.87115 2.38682 4.60629 2.96092 3.61734C3.50412 4.28587 4.18191 4.83264 4.95023 5.22212C5.71855 5.61159 6.56022 5.83506 7.42055 5.87801C7.33477 5.50877 7.34744 5.12349 7.45729 4.76068C7.56714 4.39788 7.77032 4.07028 8.0465 3.81064C8.91803 2.99138 10.2887 3.0334 11.108 3.90445C11.5925 3.80879 12.0572 3.63114 12.482 3.37916C12.3205 3.88017 11.9825 4.30545 11.5308 4.57588C11.9598 4.52529 12.3787 4.41047 12.7734 4.23527C12.4831 4.67017 12.1174 5.0497 11.6937 5.35611Z" fill="white"/>
</g>
<defs>
<clipPath id="clip0_842_124">
<rect width="15" height="15" fill="white"/>
</clipPath>
</defs>
</svg>
