<svg width="17" height="24" viewBox="0 0 17 24" fill="none" xmlns="http://www.w3.org/2000/svg">
<path d="M8.5 0L7.4375 1.22479C7.4375 1.22479 5.62417 3.339 3.79667 6.08019C1.96917 8.82139 0 12.1021 0 15.2515C0 17.5718 0.895533 19.797 2.48959 21.4376C4.08365 23.0783 6.24566 24 8.5 24C10.7543 24 12.9163 23.0783 14.5104 21.4376C16.1045 19.797 17 17.5718 17 15.2515C17 12.1021 15.0308 8.82139 13.2033 6.08019C11.3758 3.339 9.5625 1.22479 9.5625 1.22479L8.5 0ZM8.5 4.56379C9.12333 5.32199 9.69 5.94897 10.88 7.72783C12.5942 10.294 14.1667 13.5601 14.1667 15.2515C14.1667 18.4885 11.645 21.0838 8.5 21.0838C5.355 21.0838 2.83333 18.4885 2.83333 15.2515C2.83333 13.5601 4.40583 10.294 6.12 7.72783C7.31 5.94897 7.87667 5.32199 8.5 4.56379Z" fill="black"/>
</svg>
