<svg width="24" height="18" viewBox="0 0 24 18" fill="none" xmlns="http://www.w3.org/2000/svg">
<path d="M10.7314 17.3312C10.4314 17.6311 10.0245 17.7997 9.60019 17.7997C9.17593 17.7997 8.76904 17.6311 8.469 17.3312L1.269 10.1312C0.969042 9.83115 0.800537 9.42426 0.800537 8.99999C0.800537 8.57573 0.969042 8.16884 1.269 7.86879L8.469 0.668795C8.77076 0.37734 9.17492 0.21607 9.59444 0.219715C10.014 0.223362 10.4153 0.39163 10.7119 0.688284C11.0086 0.984938 11.1768 1.38624 11.1805 1.80575C11.1841 2.22527 11.0228 2.62943 10.7314 2.93119L6.40019 7.39999H21.6002C22.0245 7.39999 22.4315 7.56857 22.7316 7.86862C23.0316 8.16868 23.2002 8.57565 23.2002 8.99999C23.2002 9.42434 23.0316 9.83131 22.7316 10.1314C22.4315 10.4314 22.0245 10.6 21.6002 10.6H6.40019L10.7314 15.0688C11.0313 15.3688 11.1999 15.7757 11.1999 16.2C11.1999 16.6243 11.0313 17.0311 10.7314 17.3312Z" fill="black"/>
</svg>
