<svg width="24" height="24" viewBox="0 0 24 24" fill="none" xmlns="http://www.w3.org/2000/svg">
<path d="M13.1751 1.39979L15.7811 7.34375C15.8792 7.56741 16.0355 7.76066 16.2337 7.90335C16.4319 8.04604 16.6648 8.13294 16.908 8.15499L23.2566 8.72422C23.9749 8.82877 24.2615 9.70971 23.7406 10.217L18.9584 14.2345C18.5711 14.5598 18.3949 15.0709 18.5014 15.5646L19.8916 22.072C20.0136 22.7864 19.2643 23.3324 18.6215 22.9936L13.0802 19.7486C12.8713 19.6259 12.6333 19.5612 12.391 19.5612C12.1486 19.5612 11.9107 19.6259 11.7017 19.7486L6.16045 22.9917C5.51959 23.3285 4.76836 22.7845 4.89034 22.07L6.28049 15.5627C6.38504 15.069 6.21079 14.5578 5.82356 14.2325L1.03935 10.2189C0.520467 9.71359 0.807016 8.8307 1.52339 8.72615L7.872 8.15693C8.11522 8.13488 8.34808 8.04798 8.54627 7.90529C8.74447 7.7626 8.90076 7.56934 8.99884 7.34568L11.6049 1.40172C11.9282 0.75118 12.8537 0.751181 13.1751 1.39979Z" fill="#FDD835"/>
</svg>
