<svg width="70" height="70" viewBox="0 0 70 70" fill="none" xmlns="http://www.w3.org/2000/svg">
<path d="M43.8954 14.5833C46.7442 15.1391 49.3623 16.5324 51.4147 18.5848C53.4671 20.6372 54.8604 23.2553 55.4162 26.1041M43.8954 2.91663C49.8141 3.57415 55.3333 6.22464 59.5469 10.4329C63.7605 14.6412 66.4179 20.1571 67.0829 26.075M64.1662 49.35V58.1C64.1695 58.9123 64.0031 59.7163 63.6777 60.4606C63.3523 61.2048 62.875 61.8729 62.2764 62.4221C61.6779 62.9712 60.9712 63.3893 60.2017 63.6495C59.4322 63.9098 58.6169 64.0064 57.8079 63.9333C48.8328 62.9581 40.2116 59.8912 32.637 54.9791C25.5899 50.5011 19.6151 44.5263 15.137 37.4791C10.2078 29.8701 7.14023 21.207 6.18285 12.1916C6.10997 11.3851 6.20582 10.5722 6.46431 9.8047C6.7228 9.03722 7.13827 8.33197 7.68425 7.73385C8.23024 7.13574 8.89478 6.65786 9.63558 6.33065C10.3764 6.00344 11.1772 5.83406 11.987 5.83329H20.737C22.1525 5.81936 23.5247 6.3206 24.598 7.2436C25.6712 8.16659 26.3722 9.44835 26.5704 10.85C26.9397 13.6502 27.6246 16.3996 28.612 19.0458C29.0044 20.0897 29.0894 21.2243 28.8567 22.315C28.6241 23.4058 28.0837 24.4069 27.2995 25.2L23.5954 28.9041C27.7474 36.2061 33.7933 42.2521 41.0954 46.4041L44.7995 42.7C45.5925 41.9158 46.5937 41.3754 47.6845 41.1427C48.7752 40.9101 49.9097 40.995 50.9537 41.3875C53.5999 42.3749 56.3493 43.0598 59.1495 43.4291C60.5663 43.629 61.8603 44.3426 62.7852 45.4343C63.7102 46.526 64.2017 47.9196 64.1662 49.35Z" stroke="#A7540C" stroke-width="4" stroke-linecap="round" stroke-linejoin="round"/>
</svg>
